<!DOCTYPE svg PUBLIC "-//W3C//DTD SVG 1.1//EN" "http://www.w3.org/Graphics/SVG/1.1/DTD/svg11.dtd">
<!-- Uploaded to: SVG Repo, www.svgrepo.com, Transformed by: SVG Repo Mixer Tools -->
<svg height="64px" width="64px" version="1.1" id="Layer_1" xmlns="http://www.w3.org/2000/svg" xmlns:xlink="http://www.w3.org/1999/xlink" viewBox="0 0 511.988 511.988" xml:space="preserve" fill="#000000">
<g id="SVGRepo_bgCarrier" stroke-width="0"/>
<g id="SVGRepo_tracerCarrier" stroke-linecap="round" stroke-linejoin="round"/>
<g id="SVGRepo_iconCarrier"> <path style="fill:#E6E9ED;" d="M408.303,166.418c0-57.545-46.656-104.2-104.217-104.2c-17.344,0-33.701,4.25-48.092,11.75 c-14.391-7.5-30.75-11.75-48.093-11.75c-57.553,0-104.208,46.655-104.208,104.2c0,15.812,3.523,30.797,9.828,44.218l31.39,68.014 c-7.507,24.046,4.727,168.324,54.967,168.324c15.805,0,40.616-134.122,56.108-134.231c15.484-0.109,40.287,134.231,56.1,134.231 c50.248,0,62.482-144.278,54.967-168.324l31.422-68.014C404.771,197.215,408.303,182.23,408.303,166.418z"/> <path style="fill:#FAAFBA ;" d="M255.994,289.774L255.994,289.774L255.994,289.774c-118.614,0-72.186-103.997-255.994-95.997V449.77 h511.988V193.777C328.18,185.777,374.615,289.774,255.994,289.774z"/> <path style="fill:#ED5564;" d="M255.994,385.771c98.717,0,180.025-82.779,190.775-189.275l0,0 c-108.761,16.593-88.92,93.278-190.775,93.278l0,0l0,0c-101.857,0-82.014-76.686-190.777-93.278l0,0 C75.967,302.992,157.278,385.771,255.994,385.771z"/> <path style="fill:#DA4453;" d="M426.646,300.445c-2.328,1.859-31.953,26.984-31.203,53.359 c0.219,19.249,13.906,31.607,31.203,31.967c17.311-0.359,30.998-12.718,31.217-31.967 C458.613,327.43,428.99,302.305,426.646,300.445z"/> <g style="opacity:0.2;"> <path style="fill:#FFFFFF;" d="M255.994,289.774L255.994,289.774L255.994,289.774c-118.614,0-72.186-103.997-255.994-95.997v21.343 c183.808-8,137.379,95.997,255.994,95.997l0,0l0,0c118.621,0,72.186-103.997,255.994-95.997v-21.343 C328.18,185.777,374.615,289.774,255.994,289.774z"/> </g> </g>
</svg>