<!DOCTYPE svg PUBLIC "-//W3C//DTD SVG 1.1//EN" "http://www.w3.org/Graphics/SVG/1.1/DTD/svg11.dtd">
<!-- Uploaded to: SVG Repo, www.svgrepo.com, Transformed by: SVG Repo Mixer Tools -->
<svg fill="#C9A227" height="64px" width="64px" version="1.1" id="Capa_1" xmlns="http://www.w3.org/2000/svg" xmlns:xlink="http://www.w3.org/1999/xlink" viewBox="0 0 297 297" xml:space="preserve" transform="matrix(1, 0, 0, 1, 0, 0)" stroke="#C9A227" stroke-width="0.00297">
<g id="SVGRepo_bgCarrier" stroke-width="0"/>
<g id="SVGRepo_tracerCarrier" stroke-linecap="round" stroke-linejoin="round"/>
<g id="SVGRepo_iconCarrier"> <g> <path d="M197.58,133.352c9.37-1.648,18.129-12.746,18.129-22.797V94.784c0-2.293-0.826-4.391-2.194-6.02 c3.984-23.54,26.14-46.519,26.377-46.761c2.656-2.711,3.415-6.755,1.921-10.244c-1.477-3.45-4.868-5.683-8.613-5.683 c-0.041,0-0.083,0-0.124,0.001c-15.79,0.208-29.067,3.302-39.723,9.198c-1.695-3.231-3.579-6.411-5.627-9.433 C176.436,9.178,162.241,0,148.236,0c-14.005,0-27.672,9.178-38.961,25.843c-2.048,3.023-3.933,6.203-5.626,9.434 c-10.656-5.896-23.933-8.991-39.724-9.199c-0.041-0.001-0.082-0.001-0.124-0.001c-3.745,0-7.136,2.233-8.612,5.683 c-1.493,3.489-0.735,7.533,1.921,10.243c6.654,6.792,22.976,27.185,26.373,46.766c-1.366,1.628-2.19,3.725-2.19,6.016v15.771 c0,10.051,8.758,21.149,18.129,22.797c2.762,0.486,8.843,5.467,8.843,11.329c0,2.986-0.083,6.827-2.048,7.877 c-29.799,15.93-56.091,39.047-56.091,68.318c0,20.852,10.59,40.277,29.817,54.698C98.364,289.391,122.712,297,148.5,297 s50.137-7.609,68.558-21.425c19.228-14.421,29.817-33.847,29.817-54.698c0-29.271-24.359-52.545-54.818-68.318 c-1.978-1.024-3.32-4.891-3.32-7.877C188.737,138.819,194.818,133.838,197.58,133.352z M196.97,104.153v6.402 c0,2.497-2.032,4.528-4.529,4.528h-87.883c-2.497,0-4.529-2.031-4.529-4.528v-6.402H196.97z M131.162,85.415 c5.417-15.842,13.219-22.169,17.074-24.569c10.406,7.639,15.033,17.322,17.815,24.569H131.162z M171.791,133.822 c-1.152,3.359-1.792,7.022-1.792,10.859c0,2.51,0.285,4.939,0.796,7.264h-44.586c0.51-2.324,0.794-4.755,0.794-7.264 c0-3.838-0.64-7.501-1.792-10.859H171.791z M195.078,85.415h-9.35c-0.525-1.868-1.201-3.977-2.062-6.257 c1.075-6.152,3.485-13.305,8.673-19.361c4.65-5.427,11.018-9.396,19.039-11.881C204.586,58.063,197.553,71.336,195.078,85.415z M148.236,41.022c-7.69,0-18.903,9.806-23.156,15.508c-1.651-2.977-4.097-6.425-6.49-9.245c1.681-3.587,3.748-7.317,6.198-10.933 c7.583-11.193,15.962-17.614,23.448-17.614c7.486,0,16.393,6.42,23.976,17.614c2.449,3.615,4.52,7.345,6.201,10.93 c-2.716,3.2-5.369,7.068-7.142,10.458C166.695,52.227,156.986,41.022,148.236,41.022z M104.66,59.797 c5.274,6.157,7.681,13.45,8.729,19.67c-0.642,1.889-1.258,3.871-1.846,5.949h-9.622c-2.475-14.079-9.508-27.353-16.3-37.5 C93.642,50.401,100.01,54.37,104.66,59.797z M110.04,170.683h76.92c17.742,7.112,30.753,18.561,37.01,31.917 c-0.739,0.061-1.474,0.278-2.141,0.71h-0.009c-2.174,1.396-2.802,4.3-1.405,6.474c0.899,1.395,2.408,2.155,3.944,2.155 c0.871,0,1.752-0.243,2.53-0.749c0.032-0.02,0.056-0.048,0.087-0.069c0.682,2.842,1.061,5.743,1.137,8.681 c-1.73,1.677-8.207,5.517-23.84,8.85c-15.448,3.294-35.255,5.108-55.772,5.108s-40.324-1.814-55.772-5.108 c-15.633-3.333-22.11-7.173-23.84-8.85c0.079-3.057,0.492-6.072,1.227-9.025c0.34,0.078,0.685,0.131,1.031,0.131 c1.434,0,2.848-0.655,3.767-1.892c1.545-2.071,1.114-5.003-0.956-6.549h-0.009c-0.214-0.16-0.441-0.285-0.671-0.403 C79.628,188.937,92.535,177.7,110.04,170.683z M148.5,278.262c-32.806,0-61.036-14.371-73.22-34.833 c2.484,0.799,5.152,1.556,8.011,2.271c17.532,4.383,40.691,6.797,65.209,6.797s47.677-2.414,65.209-6.797 c2.859-0.715,5.527-1.472,8.011-2.271C209.536,263.891,181.306,278.262,148.5,278.262z"/> <path d="M101.979,221.738c0.291,0.056,0.572,0.075,0.844,0.075c2.22,0,4.197-1.584,4.6-3.851c0.468-2.539-1.228-4.975-3.776-5.434 c-2.539-0.469-4.976,1.227-5.434,3.766C97.745,218.843,99.44,221.279,101.979,221.738z"/> <path d="M214.202,216.707c0.524,0,1.059-0.093,1.574-0.281c2.437-0.872,3.701-3.551,2.83-5.988c-0.872-2.436-3.551-3.7-5.987-2.829 c-2.436,0.871-3.701,3.551-2.829,5.986C210.473,215.507,212.272,216.707,214.202,216.707z"/> <path d="M203.409,219.883c0.366,0,0.74-0.047,1.115-0.14c-0.009,0-0.009,0-0.009,0c2.52-0.609,4.057-3.139,3.448-5.659 c-0.609-2.512-3.138-4.057-5.65-3.438c-2.52,0.608-4.066,3.138-3.448,5.649C199.38,218.44,201.301,219.883,203.409,219.883z"/> <path d="M79.419,215.761c0.553,0.206,1.124,0.309,1.677,0.309c1.883,0,3.654-1.134,4.375-2.998 c0.928-2.417-0.272-5.125-2.689-6.062h0.01c-2.417-0.928-5.135,0.272-6.063,2.688C75.803,212.115,77.001,214.824,79.419,215.761z"/> <path d="M90.661,219.292c0.393,0.094,0.787,0.15,1.171,0.15c2.08,0,3.982-1.405,4.535-3.523c0.638-2.502-0.871-5.06-3.373-5.706 c-2.511-0.647-5.06,0.862-5.706,3.373C86.642,216.088,88.151,218.646,90.661,219.292z"/> <path d="M158.841,225.382c0.047,0,0.102,0,0.159,0c2.586-0.084,4.609-2.258,4.515-4.844c-0.084-2.586-2.248-4.61-4.834-4.516 c-2.587,0.085-4.61,2.249-4.525,4.835C154.24,223.396,156.32,225.382,158.841,225.382z"/> <path d="M136.167,225.317c0.056,0,0.122,0,0.188,0c2.501,0,4.572-1.977,4.674-4.498c0.103-2.586-1.911-4.76-4.488-4.862 c-2.586-0.113-4.769,1.901-4.871,4.488C131.567,223.031,133.582,225.214,136.167,225.317z"/> <path d="M124.746,224.633c0.132,0.009,0.253,0.018,0.384,0.018c2.417,0,4.469-1.864,4.666-4.309c0.206-2.586-1.724-4.844-4.3-5.05 c-2.576-0.207-4.835,1.724-5.041,4.3C120.249,222.169,122.17,224.427,124.746,224.633z"/> <path d="M147.579,225.561h0.009c2.587,0,4.684-2.09,4.684-4.675c0.01-2.586-2.08-4.684-4.665-4.694 c-2.586-0.009-4.694,2.08-4.704,4.665C142.903,223.453,144.993,225.552,147.579,225.561z"/> <path d="M113.353,223.471c0.198,0.028,0.394,0.038,0.581,0.038c2.333,0,4.348-1.733,4.647-4.104 c0.328-2.567-1.499-4.91-4.066-5.228c-2.567-0.327-4.91,1.5-5.228,4.066C108.969,220.801,110.787,223.143,113.353,223.471z"/> <path d="M181.261,223.724c0.178,0,0.365-0.01,0.544-0.028c0.009,0,0.009,0,0.009,0c2.567-0.309,4.404-2.632,4.104-5.2 c-0.309-2.576-2.632-4.413-5.2-4.104c-2.567,0.299-4.404,2.623-4.104,5.191C176.895,221.972,178.918,223.724,181.261,223.724z"/> <path d="M170.064,224.792c0.113,0,0.225-0.009,0.347-0.018c2.577-0.188,4.516-2.436,4.329-5.013 c-0.188-2.586-2.436-4.515-5.012-4.329c-2.586,0.188-4.525,2.436-4.329,5.013C165.577,222.909,167.638,224.792,170.064,224.792z"/> <path d="M192.391,222.132c0.262,0,0.525-0.019,0.797-0.066c2.548-0.44,4.263-2.857,3.822-5.406 c-0.431-2.558-2.857-4.263-5.406-3.832c-2.548,0.44-4.263,2.857-3.823,5.406C188.175,220.52,190.152,222.132,192.391,222.132z"/> </g> </g>
</svg>