<!DOCTYPE svg PUBLIC "-//W3C//DTD SVG 1.1//EN" "http://www.w3.org/Graphics/SVG/1.1/DTD/svg11.dtd">
<!-- Uploaded to: SVG Repo, www.svgrepo.com, Transformed by: SVG Repo Mixer Tools -->
<svg fill="#E5D3A1" height="800px" width="800px" version="1.1" id="Layer_1" xmlns="http://www.w3.org/2000/svg" xmlns:xlink="http://www.w3.org/1999/xlink" viewBox="0 0 512 512" xml:space="preserve">
<g id="SVGRepo_bgCarrier" stroke-width="0"/>
<g id="SVGRepo_tracerCarrier" stroke-linecap="round" stroke-linejoin="round"/>
<g id="SVGRepo_iconCarrier"> <g> <g> <path d="M489.157,344.061H395.68c14.425-5.099,26.224-10.895,35.659-16.522c33.98-20.263,46.104-42.752,46.604-43.7 c1.225-2.323,1.204-5.104-0.054-7.409c-1.259-2.305-3.588-3.826-6.205-4.052c-20.205-1.749-41.12-0.895-62.489,2.5 c12.377-39,1.53-76.78,1.008-78.547c-1.085-3.673-4.659-6.015-8.465-5.56c-28.259,3.447-54.071,14.596-76.915,33.18 c-2.593-10.574-6.659-21.346-12.157-32.176c-1.959-3.861-6.675-5.402-10.536-3.441c-3.859,1.959-5.399,6.676-3.44,10.535 c6.453,12.713,10.687,25.233,12.627,37.278c-29.258,29.191-46.484,65.519-55.314,88.77c-8.829-23.251-26.058-59.579-55.321-88.769 c4.794-29.774,23.373-61.645,55.32-94.872c9.783,10.184,18.384,20.311,25.627,30.179c2.561,3.49,7.466,4.242,10.955,1.68 c3.489-2.56,4.242-7.466,1.681-10.954c-9.052-12.333-20.061-24.996-32.724-37.638c-3.058-3.054-8.011-3.054-11.072-0.002 c-34.233,34.157-55.461,67.528-63.288,99.414c-22.846-18.587-48.66-29.737-76.92-33.184c-3.799-0.461-7.38,1.889-8.465,5.56 c-0.522,1.768-11.376,39.585,1.03,78.602c-19.815-3.169-40.872-4.427-62.51-2.556c-2.616,0.226-4.945,1.747-6.205,4.052 c-1.258,2.305-1.279,5.087-0.054,7.409c0.499,0.948,12.623,23.438,46.603,43.7c9.435,5.627,21.233,11.423,35.656,16.522H22.843 C10.247,344.061,0,354.308,0,366.905s10.247,22.843,22.843,22.843h82.692c4.328,0,7.837-3.508,7.837-7.837 c0-4.329-3.509-7.837-7.837-7.837H22.843c-3.953,0-7.169-3.216-7.169-7.169c0-3.953,3.216-7.169,7.169-7.169h466.314 c3.953,0,7.169,3.216,7.169,7.169c0,3.953-3.215,7.169-7.168,7.169H146.286c-4.328,0-7.837,3.508-7.837,7.837 c0,4.329,3.509,7.837,7.837,7.837h342.872c12.595,0,22.843-10.247,22.843-22.843C512,354.309,501.753,344.061,489.157,344.061z M89.758,314.709c-16.585-9.719-27.432-20.026-33.914-27.479c52.212-1.149,100.107,15.866,132.153,31.075 c18.848,8.946,34.41,18.253,45.365,25.408C161.202,346.587,115.791,329.97,89.758,314.709z M195.105,304.33 c-19.792-9.42-45.366-19.486-74.32-25.953c-11.792-28.061-8.021-58.05-5.473-71.015c26.533,4.652,50.602,17.17,71.636,37.275 c28.493,27.208,45.488,62.806,54.154,85.384C229.832,322.702,214.164,313.402,195.105,304.33z M278.651,343.715 c14.379-9.383,36.696-22.481,64.007-33.647c4.006-1.637,5.926-6.213,4.288-10.219c-1.637-4.006-6.211-5.927-10.22-4.288 c-28.087,11.483-50.828,24.708-65.81,34.44c8.667-22.579,25.659-58.164,54.138-85.364c21.035-20.107,45.108-32.626,71.648-37.275 c2.564,12.923,6.355,42.797-5.453,70.942c-5.782,1.289-11.59,2.748-17.423,4.402c-4.164,1.181-6.582,5.513-5.402,9.678 c1.181,4.163,5.51,6.577,9.678,5.402c26.776-7.59,52.962-11.124,78.057-10.561c-6.486,7.457-17.332,17.765-33.915,27.485 C396.21,329.971,350.821,346.585,278.651,343.715z"/> </g> </g> </g>
</svg>