<?xml version="1.0" encoding="iso-8859-1"?>
<!-- Uploaded to: SVG Repo, www.svgrepo.com, Generator: SVG Repo Mixer Tools -->
<svg version="1.1" id="Layer_1" xmlns="http://www.w3.org/2000/svg" xmlns:xlink="http://www.w3.org/1999/xlink" 
	 viewBox="0 0 511.981 511.981" xml:space="preserve">
<path style="fill:#CCF7FF;" d="M160.925,351.983c-25.852,0-46.81,20.958-46.81,46.81h211.669v-46.81H160.925z"/>
<path style="opacity:0.15;fill:#293133;enable-background:new    ;" d="M120.394,375.389c-3.985,6.887-6.278,14.876-6.278,23.406
	h211.669v-23.406L120.394,375.389L120.394,375.389z"/>
<g>
	<path style="fill:#667C80;" d="M422.537,445.604H88.126c-19.444,0-35.208,15.763-35.208,35.208v31.169h404.826v-31.169
		C457.745,461.366,441.981,445.604,422.537,445.604z"/>
	<path style="fill:#667C80;" d="M406.176,400.587c32.109-24.359,52.887-62.911,52.887-106.231
		c0-65.669-47.742-120.392-110.338-131.297l-51.294,32.454l6.34,38.618c6.868-2.518,14.282-3.893,22.012-3.893
		c35.354,0,64.118,28.763,64.118,64.118c0,27.697-17.654,51.344-42.299,60.291l18.528,37.851L406.176,400.587z"/>
</g>
<g>
	<path style="opacity:0.15;fill:#293133;enable-background:new    ;" d="M297.431,195.513l6.34,38.618
		c6.868-2.519,14.282-3.893,22.012-3.893c1.919,0,3.814,0.1,5.691,0.266l39.024-61.698c-7.009-2.504-14.283-4.442-21.774-5.747
		L297.431,195.513z"/>
	
		<rect x="163.578" y="263.626" transform="matrix(-0.8451 -0.5346 0.5346 -0.8451 266.2101 636.1824)" style="fill:#293133;" width="123.383" height="31.799"/>
	
		<rect x="337.305" y="20.023" transform="matrix(-0.8451 -0.5346 0.5346 -0.8451 680.7658 269.091)" style="fill:#293133;" width="84.122" height="31.799"/>
</g>
<rect x="344.045" y="46.927" transform="matrix(-0.8451 -0.5346 0.5346 -0.8451 635.3068 309.3639)" style="fill:#667C80;" width="36.852" height="31.436"/>
<g>
	
		<rect x="348.414" y="48.195" transform="matrix(-0.8451 -0.5346 0.5346 -0.8451 647.0659 298.9369)" style="opacity:0.15;fill:#293133;enable-background:new    ;" width="36.852" height="15.065"/>
	<path style="opacity:0.15;fill:#293133;enable-background:new    ;" d="M370.814,339.938c-6.527,6.449-14.421,11.518-23.212,14.71
		l18.528,37.851l40.045,8.089c5.86-4.446,11.338-9.369,16.385-14.703C410.503,365.342,392.297,349.345,370.814,339.938z"/>
</g>
<path style="fill:#85A1A6;" d="M411.813,413.777c-12.442-36.926-47.062-61.794-86.029-61.794l0,0
	c-38.967,0-73.586,24.867-86.029,61.794l-10.724,31.827h193.506L411.813,413.777z"/>
<circle style="fill:#293133;" cx="325.785" cy="398.797" r="17.823"/>
<g>
	
		<rect x="251.856" y="58.489" transform="matrix(-0.8451 -0.5346 0.5346 -0.8451 450.8893 472.6446)" style="fill:#CCF7FF;" width="84.122" height="225.026"/>
	<polygon style="fill:#CCF7FF;" points="318.533,53.425 198.245,243.602 389.628,98.392 	"/>
</g>
<path style="opacity:0.2;fill:#333333;enable-background:new    ;" d="M52.98,478.792c-0.038,0.668-0.061,1.341-0.061,2.02v31.169
	h404.826v-31.169c0-0.678-0.024-1.351-0.061-2.02H52.98z"/>
<path style="opacity:0.15;fill:#293133;enable-background:new    ;" d="M52.98,495.594c-0.038,0.33-0.061,0.662-0.061,0.997v15.39
	h404.826v-15.39c0-0.334-0.024-0.667-0.061-0.997H52.98z"/>
</svg>