<!DOCTYPE svg PUBLIC "-//W3C//DTD SVG 1.1//EN" "http://www.w3.org/Graphics/SVG/1.1/DTD/svg11.dtd">
<!-- Uploaded to: SVG Repo, www.svgrepo.com, Transformed by: SVG Repo Mixer Tools -->
<svg fill="#10B981" height="104px" width="104px" version="1.2" baseProfile="tiny" id="Layer_1" xmlns="http://www.w3.org/2000/svg" xmlns:xlink="http://www.w3.org/1999/xlink" viewBox="0 0 256.00 256.00" xml:space="preserve" stroke="#10B981" stroke-width="0.00256">
<g id="SVGRepo_bgCarrier" stroke-width="0"/>
<g id="SVGRepo_tracerCarrier" stroke-linecap="round" stroke-linejoin="round"/>
<g id="SVGRepo_iconCarrier"> <path id="XMLID_1_" d="M127.2,138.4c18.8,0,27.5,14.3,29.3,34.5c0.4,4.8,0,11.9-0.6,20.1c-2.1,27.2-4.5,60.6,13.6,60.6 c15.3,0,23.2-29.4,27.7-62.8c4.4-33.1-0.3-49.6,2-64.3c4.3-27.9,28.7-52.9,21.2-88.4c-4.2-19.7-15-29-25.8-32.9 c-24.8-9-40.8,8.4-67.4,8.4S84.6-3.9,59.8,5.1C49.1,9,38.2,18.3,34,38c-7.5,35.5,16.8,60.5,21.2,88.4c2.3,14.7-2.4,31.2,2,64.3 c4.5,33.5,12.4,62.8,27.7,62.8c18.1,0,15.7-33.4,13.6-60.6c-0.6-8.2-1.1-15.2-0.6-20.1C99.7,152.6,108.5,138.4,127.2,138.4z"/> </g>
</svg>